<?xml version="1.0" standalone="no"?>
<!DOCTYPE svg PUBLIC "-//W3C//DTD SVG 20010904//EN"
 "http://www.w3.org/TR/2001/REC-SVG-20010904/DTD/svg10.dtd">
<svg version="1.0" xmlns="http://www.w3.org/2000/svg"
 width="200.000000pt" height="200.000000pt" viewBox="0 0 200.000000 200.000000"
 preserveAspectRatio="xMidYMid meet">
<metadata>
Created by potrace 1.11, written by Peter Selinger 2001-2013
</metadata>
<g transform="translate(0.000000,200.000000) scale(0.100000,-0.100000)"
fill="#000000" stroke="none">
<path d="M998 1409 c-10 -5 -17 -20 -16 -32 1 -28 -47 -133 -65 -140 -19 -7
-177 64 -177 79 0 19 -44 46 -64 38 -22 -8 -31 -50 -15 -70 9 -11 23 -14 43
-11 21 4 54 -4 102 -25 86 -37 91 -56 33 -119 -33 -36 -41 -40 -68 -34 -23 5
-38 1 -59 -14 l-29 -20 -56 26 c-32 15 -57 33 -57 40 0 21 -35 34 -55 19 -13
-10 -16 -20 -11 -41 6 -24 10 -27 37 -21 20 4 46 -2 84 -20 43 -21 56 -33 65
-60 10 -29 9 -38 -11 -66 -12 -18 -33 -43 -47 -55 -28 -24 -24 -53 8 -53 11 0
20 3 21 8 4 44 56 125 75 118 8 -3 27 0 44 5 27 10 35 8 65 -16 20 -14 33 -30
31 -34 -3 -4 2 -17 10 -29 18 -27 60 -29 73 -4 6 11 40 27 90 41 68 20 84 21
97 10 9 -7 30 -13 48 -14 33 0 81 -33 102 -71 14 -24 49 -30 57 -10 10 25 -3
46 -27 46 -35 1 -85 54 -84 90 1 21 -7 39 -23 54 -22 20 -24 30 -23 102 1 43
2 83 3 87 2 12 37 -1 97 -37 38 -23 70 -55 109 -110 30 -42 55 -80 55 -85 0
-5 6 -14 14 -20 10 -8 16 -8 25 3 9 10 9 16 1 21 -15 9 -120 152 -120 162 0
15 92 86 113 87 25 1 42 28 34 50 -10 25 -61 17 -66 -9 -3 -18 -87 -104 -102
-105 -16 0 -134 77 -137 90 -4 21 -30 39 -50 34 -20 -5 -123 76 -134 106 -8
22 -15 24 -40 9z m87 -91 c30 -24 54 -48 54 -54 1 -6 9 -22 19 -35 14 -19 18
-42 17 -106 -1 -45 -4 -86 -8 -89 -6 -6 -42 22 -160 126 -54 47 -58 67 -25
138 17 34 34 62 39 62 6 0 34 -19 64 -42z m-31 -230 c76 -67 82 -75 74 -98 -7
-20 -23 -29 -80 -47 -70 -21 -72 -21 -95 -3 -13 10 -32 16 -43 13 -10 -3 -34
4 -52 15 -29 18 -34 27 -35 64 -2 37 3 48 34 81 22 21 44 35 53 32 8 -2 22 0
30 5 8 5 19 10 23 10 4 0 45 -33 91 -72z"/>
<path d="M100 691 l0 -111 69 0 c89 0 104 18 19 22 l-63 3 -1 94 c0 63 -4 96
-12 99 -9 3 -12 -27 -12 -107z"/>
<path d="M280 689 l0 -109 80 0 c47 0 80 4 80 10 0 6 -28 10 -65 10 -36 0 -65
3 -66 8 0 4 -2 22 -3 40 l-2 32 58 0 c75 0 76 18 1 22 -60 3 -61 4 -54 67 1 5
18 9 39 9 71 1 82 2 82 11 0 6 -34 10 -75 9 l-75 -1 0 -108z"/>
<path d="M506 694 c-26 -58 -45 -109 -41 -112 8 -8 35 26 35 45 0 9 18 13 64
13 61 0 64 -1 76 -30 7 -16 18 -30 25 -30 9 0 -5 39 -38 110 -28 61 -56 110
-62 110 -7 0 -33 -48 -59 -106z m103 -26 c1 -5 -19 -8 -44 -8 -25 0 -45 3 -45
6 0 3 10 28 22 57 l22 51 22 -50 c13 -27 23 -52 23 -56z"/>
<path d="M710 691 c0 -84 3 -111 13 -111 8 0 13 12 12 33 0 31 1 32 52 37 60
6 93 31 93 70 0 50 -28 71 -103 77 l-67 6 0 -112z m113 78 c42 -22 48 -48 17
-79 -21 -21 -99 -29 -101 -10 -1 6 -2 30 -3 55 -1 45 -1 45 32 45 18 0 43 -5
55 -11z"/>
<path d="M939 747 l39 -53 -39 -54 c-45 -63 -44 -60 -25 -60 8 0 27 20 43 45
15 25 31 45 34 45 3 0 20 -20 38 -45 18 -25 39 -45 47 -45 10 0 1 19 -26 56
-41 55 -41 56 -24 82 9 15 26 37 37 49 11 13 17 26 13 30 -8 8 -37 -22 -66
-66 l-15 -23 -33 46 c-18 25 -40 46 -48 46 -10 0 -2 -17 25 -53z"/>
<path d="M1121 690 l-2 -110 90 0 89 0 11 30 c10 29 12 30 71 30 59 0 61 -1
71 -30 6 -16 17 -30 25 -30 17 0 17 4 4 28 -5 9 -28 57 -50 105 -23 51 -46 87
-52 85 -7 -3 -32 -49 -56 -104 l-45 -99 -66 3 -66 3 0 96 c0 63 -4 98 -11 100
-8 3 -12 -29 -13 -107z m272 58 c3 -7 12 -30 21 -50 l16 -38 -49 0 -49 0 21
50 c21 51 31 60 40 38z"/>
<path d="M1526 697 c1 -56 2 -105 3 -109 2 -12 120 -9 144 3 42 22 49 59 18
86 -18 15 -18 18 -5 39 12 17 13 27 4 43 -16 31 -41 40 -106 40 l-59 -1 1
-101z m125 73 c10 -6 19 -19 19 -30 0 -25 -29 -40 -79 -40 l-41 0 0 40 0 40
41 0 c22 0 49 -5 60 -10z m22 -108 c15 -16 15 -20 1 -40 -12 -18 -25 -22 -70
-22 l-54 0 0 40 0 40 53 0 c39 0 58 -5 70 -18z"/>
<path d="M1765 776 c-40 -40 -20 -77 55 -99 92 -26 60 -94 -33 -70 -23 6 -44
10 -46 7 -11 -11 21 -27 63 -31 56 -7 96 15 96 52 0 27 -42 65 -72 65 -55 0
-79 51 -33 72 18 8 35 8 60 1 37 -12 48 -1 16 17 -34 18 -80 12 -106 -14z"/>
</g>
</svg>
